<svg xmlns="http://www.w3.org/2000/svg" xmlns:xlink="http://www.w3.org/1999/xlink" viewBox="0 0 198.72 277.98"><defs><linearGradient id="Dégradé_sans_nom_41" x1="50.9" y1="116.06" x2="198.72" y2="116.06" gradientUnits="userSpaceOnUse"><stop offset="0" stop-color="#c9cc2c"/><stop offset="0.86" stop-color="#c9cc2c"/><stop offset="1" stop-color="#c9cc2c"/></linearGradient></defs><title>skills_2</title><g id="Calque_2" data-name="Calque 2"><g id="Calque_1-2" data-name="Calque 1"><path d="M125.9,120.36a24.36,24.36,0,1,1,24.29-24.42A24.25,24.25,0,0,1,125.9,120.36Zm15.28-24.5a15.36,15.36,0,1,0-15,15.5A15.16,15.16,0,0,0,141.18,95.86Z" style="fill:#c9cc2c"/><path d="M74.89,88.89c2.82-4.21,2.82-4.21,8.3-6.41l3.14-7.15c-.21-.36-.58-1-.9-1.58-2.36-4.59-2-7.59,1.39-11.43,5.26-6,6.36-6.74,12.14-8.26l6.38,2.33,6.86-2.94c2.47-5.73,2.47-5.73,6.53-8.35h13.89c4,1.39,5.57,4.75,6.65,8.26l6.53,2.82c3-.77,5.48-2,8-2,3.06,0,5.43,2.16,7.45,4.46A11.53,11.53,0,0,0,162.51,60c5,4.28,7.11,9.16,3.07,15.09,1,2.62,1.84,5,2.77,7.46,1.2.44,2.48.82,3.68,1.37,2.94,1.34,4.74,3.54,4.81,6.88.07,3,.1,6,.06,8.94-.08,5.2-1.48,7.12-6.34,8.93-.7.26-1.37.58-2.13.9-1,2.43-2,4.89-3,7.39,3.49,6.14,3.11,9-2,14.12-.94,1-1.9,1.89-2.84,2.85-4.5,4.66-8.61,5.31-13.84,1.73l-7.63,3.06c-.87,3.41-2.21,6.71-6.77,8.26H119.13c-4.22-1.39-5.82-4.67-6.65-8.27l-6.82-2.72c-2.86.7-5.39,1.86-7.89,1.81-3.07-.05-5.39-2.26-7.43-4.51-1-1.1-2.13-2.09-3.15-3.18-4-4.32-4.22-6.78-1-13l-2.94-7.51c-3.28-1.24-7-2.32-8.41-7.22Zm92.69,11.26V91.89l-5.48-.53c-1.95-6.28-5.6-12.12-7-18.37,1.36-1.8,2.25-3,3.37-4.45l-5.4-5.12-4.36,3.47c-5.25-2-10.75-3.94-16.19-6.07-.88-.35-1.51-1.34-2.14-1.93-.17-1.69-.31-3.13-.47-4.77h-8.13c-.21,1.83-.4,3.42-.63,5.39-5,2.22-10.06,4.53-15.18,6.69a11.9,11.9,0,0,1-3.33.43l-3.84-3L93.43,69l3.31,4.18c-1.88,5.06-3.82,10.4-5.9,15.68A11,11,0,0,1,89,91.36l-5,.71v8l5.66.62c2,6.25,5.58,12.13,7,18.33l-3.15,4.2,5,5.39,4.71-3.57c6,2.54,12.5,4.6,18,7.63.28,2.31.44,3.74.61,5.14H130l.43-5.37c6.13-2.47,12.23-5.43,18.44-7.25l4.27,3.4,5.51-5.18L155,119c2-6.23,4.8-12.39,7.37-18.4Z" style="fill:#c9cc2c"/><path d="M124,3.08S61.88-2,32.55,68.49a133.75,133.75,0,0,0-7.79,39.6s2.28,2.6-13,26.43l-8,14.4S-.49,159.39,11,161.24c0,0,10.88.82,14.17,7.4,0,0,2,2.69,2.25,13.47v15.34s-.58,23.7,26,29.3l11.86.31s22.4-1.19,33.23,14.57c0,0,4.81,7.52,3.86,15.28L102.9,275" style="fill:none;stroke:#c9cc2c;stroke-linecap:round;stroke-miterlimit:10;stroke-width:6px"/><path d="M94,187.18c-1.65-4-4.05-13.05-6.55-17.34-4.77-8.19-10-16.14-15.34-24-4.84-7.12-9.91-14-13.07-22.18a74.14,74.14,0,0,1-4.29-38.46C57.45,67.13,65.57,52,79.37,40.09c17-14.63,36.82-20.42,58.9-15.61,29.4,6.41,47.23,25.32,55.1,53.89,5.67,20.57.69,39.32-10.82,56.76-6,9.05-11.89,18.14-17.62,27.34a75.64,75.64,0,0,0-9.1,21.53c-1.35,3.5-1,3.54-1.75,6.27-.83,2.95-.36,1.82-.92,4l-.94,14.74c-1.9.07-3.11.06-4.75.07-15,.1-29.9.2-44.93.12a44.49,44.49,0,0,1-5.53-.1l-1.8-18.09" style="fill:none;stroke-miterlimit:10;stroke-width:6px;stroke:url(#Dégradé_sans_nom_41)"/><path d="M107.1,222.36h35.18" style="fill:none;stroke:#c9cc2c;stroke-linecap:round;stroke-miterlimit:10;stroke-width:6px"/><line x1="85.36" y1="188.77" x2="163.55" y2="188.77" style="fill:none;stroke:#c9cc2c;stroke-linecap:round;stroke-miterlimit:10;stroke-width:6px"/></g></g></svg>