<svg xmlns="http://www.w3.org/2000/svg" xmlns:xlink="http://www.w3.org/1999/xlink" viewBox="0 0 748.24 650.25"><defs><style>.cls-1{fill:none;}.cls-2{clip-path:url(#clip-path);}.cls-3{fill:#f6d81d;}</style><clipPath id="clip-path" transform="translate(106.29 152.93)"><rect class="cls-1" width="557.88" height="345.06"/></clipPath></defs><g id="Calque_2" data-name="Calque 2"><g id="Calque_1-2" data-name="Calque 1"><g class="cls-2"><polygon class="cls-3" points="263.23 143.22 180.54 191.45 97.43 143.96 97 48.23 179.69 0 262.81 47.49 263.23 143.22"/><polygon class="cls-3" points="457.23 48.23 374.55 0 291.43 47.49 291 143.22 373.69 191.45 456.81 143.96 457.23 48.23"/><polygon class="cls-3" points="651.24 143.22 568.55 191.45 485.44 143.96 485.01 48.23 567.7 0 650.81 47.49 651.24 143.22"/><polygon class="cls-3" points="166.23 201.16 83.54 152.93 0.43 200.43 0 296.15 82.69 344.38 165.8 296.89 166.23 201.16"/><polygon class="cls-3" points="360.23 296.15 277.54 344.38 194.43 296.89 194 201.16 276.69 152.93 359.81 200.43 360.23 296.15"/><polygon class="cls-3" points="554.24 201.16 471.55 152.93 388.43 200.43 388.01 296.15 470.69 344.38 553.81 296.89 554.24 201.16"/><polygon class="cls-3" points="748.24 296.15 665.55 344.38 582.44 296.89 582.01 201.16 664.7 152.93 747.81 200.43 748.24 296.15"/><polygon class="cls-3" points="263.23 449.08 180.54 497.32 97.43 449.82 97 354.1 179.69 305.86 262.81 353.36 263.23 449.08"/><polygon class="cls-3" points="457.23 354.1 374.55 305.87 291.43 353.36 291 449.09 373.69 497.32 456.81 449.82 457.23 354.1"/><polygon class="cls-3" points="651.24 449.08 568.55 497.32 485.44 449.82 485.01 354.1 567.7 305.86 650.81 353.36 651.24 449.08"/><polygon class="cls-3" points="166.23 507.03 83.54 458.8 0.43 506.29 0 602.02 82.69 650.25 165.8 602.75 166.23 507.03"/><polygon class="cls-3" points="360.23 602.02 277.54 650.25 194.43 602.75 194 507.03 276.69 458.8 359.81 506.29 360.23 602.02"/><polygon class="cls-3" points="554.24 507.03 471.55 458.8 388.43 506.29 388.01 602.02 470.69 650.25 553.81 602.75 554.24 507.03"/><polygon class="cls-3" points="748.24 602.02 665.55 650.25 582.44 602.75 582.01 507.03 664.7 458.8 747.81 506.29 748.24 602.02"/></g></g></g></svg>