<svg xmlns="http://www.w3.org/2000/svg" viewBox="0 0 32.14 39.17"><defs><style>.cls-1{fill:#f9e921;}</style></defs><g id="Calque_2" data-name="Calque 2"><g id="Calque_1-2" data-name="Calque 1"><path class="cls-1" d="M28.47,37.28c-9.49,5-21.3-.5-26-9.61C-3,18,.85,5.59,11.22,1.27a15.15,15.15,0,0,1,16.61,3c5.13,4.86,6,13.42.77,18.51C23.38,28.15,14,27,11.45,19.56,8.5,11.92,18.91,4.69,23.93,12c2.15,3.15.19,7.87-3.73,8.14-4.2.32-6.28-5.71-1.93-7.14l.29,1a2.24,2.24,0,0,0-1.37,2.94c1.08,2.7,4.75,2.08,5.66-.39s-1.09-5.17-3.53-5.43c-3.91-.56-7.09,4.05-5.5,7.61,2,5.41,8.92,6,12.63,1.92A9.2,9.2,0,0,0,27.83,9.84,11.67,11.67,0,0,0,12.62,4.58a15,15,0,0,0-6.81,21.3c4.37,7.93,13.31,11.24,22.37,10.45l.29,1Z"/></g></g></svg>