<svg xmlns="http://www.w3.org/2000/svg" viewBox="0 0 303 404.01"><title>circles3x4_dark</title><g id="Calque_2" data-name="Calque 2"><g id="Calque_1-2" data-name="Calque 1"><g id="Calque_2-2" data-name="Calque 2"><g id="Calque_1-2-2" data-name="Calque 1-2"><path d="M50.5,22A28.5,28.5,0,1,1,22,50.5,28.5,28.5,0,0,1,50.5,22m0-22A50.5,50.5,0,1,0,101,50.5,50.5,50.5,0,0,0,50.5,0Z" style="fill:#232323"/></g></g><g id="Calque_2-3" data-name="Calque 2"><g id="Calque_1-2-3" data-name="Calque 1-2"><path d="M151.5,22A28.5,28.5,0,1,1,123,50.5,28.5,28.5,0,0,1,151.5,22m0-22A50.5,50.5,0,1,0,202,50.5,50.5,50.5,0,0,0,151.5,0Z" style="fill:#232323"/></g></g><g id="Calque_2-4" data-name="Calque 2"><g id="Calque_1-2-4" data-name="Calque 1-2"><path d="M252.5,22A28.5,28.5,0,1,1,224,50.5,28.5,28.5,0,0,1,252.5,22m0-22A50.5,50.5,0,1,0,303,50.5,50.5,50.5,0,0,0,252.5,0Z" style="fill:#232323"/></g></g><g id="Calque_2-5" data-name="Calque 2"><g id="Calque_1-2-5" data-name="Calque 1-2"><path d="M50.5,123A28.5,28.5,0,1,1,22,151.5,28.5,28.5,0,0,1,50.5,123m0-22A50.5,50.5,0,1,0,101,151.5,50.5,50.5,0,0,0,50.5,101Z" style="fill:#232323"/></g></g><g id="Calque_2-6" data-name="Calque 2"><g id="Calque_1-2-6" data-name="Calque 1-2"><path d="M151.5,123A28.5,28.5,0,1,1,123,151.5,28.5,28.5,0,0,1,151.5,123m0-22A50.5,50.5,0,1,0,202,151.5,50.5,50.5,0,0,0,151.5,101Z" style="fill:#232323"/></g></g><g id="Calque_2-7" data-name="Calque 2"><g id="Calque_1-2-7" data-name="Calque 1-2"><path d="M252.5,123A28.5,28.5,0,1,1,224,151.5,28.5,28.5,0,0,1,252.5,123m0-22A50.5,50.5,0,1,0,303,151.5,50.5,50.5,0,0,0,252.5,101Z" style="fill:#232323"/></g></g><g id="Calque_2-8" data-name="Calque 2"><g id="Calque_1-2-8" data-name="Calque 1-2"><path d="M50.5,224A28.5,28.5,0,1,1,22,252.5,28.5,28.5,0,0,1,50.5,224m0-22A50.5,50.5,0,1,0,101,252.5,50.5,50.5,0,0,0,50.5,202Z" style="fill:#232323"/></g></g><g id="Calque_2-9" data-name="Calque 2"><g id="Calque_1-2-9" data-name="Calque 1-2"><path d="M151.5,224A28.5,28.5,0,1,1,123,252.5,28.5,28.5,0,0,1,151.5,224m0-22A50.5,50.5,0,1,0,202,252.5,50.5,50.5,0,0,0,151.5,202Z" style="fill:#232323"/></g></g><g id="Calque_2-10" data-name="Calque 2"><g id="Calque_1-2-10" data-name="Calque 1-2"><path d="M252.5,224A28.5,28.5,0,1,1,224,252.5,28.5,28.5,0,0,1,252.5,224m0-22A50.5,50.5,0,1,0,303,252.5,50.5,50.5,0,0,0,252.5,202Z" style="fill:#232323"/></g></g><g id="Calque_2-11" data-name="Calque 2"><g id="Calque_1-2-11" data-name="Calque 1-2"><path d="M50.5,325A28.5,28.5,0,1,1,22,353.51,28.5,28.5,0,0,1,50.5,325m0-22a50.5,50.5,0,1,0,50.5,50.5A50.49,50.49,0,0,0,50.5,303Z" style="fill:#232323"/></g></g><g id="Calque_2-12" data-name="Calque 2"><g id="Calque_1-2-12" data-name="Calque 1-2"><path d="M151.5,325a28.5,28.5,0,1,1-28.5,28.5A28.5,28.5,0,0,1,151.5,325m0-22a50.5,50.5,0,1,0,50.5,50.5A50.49,50.49,0,0,0,151.5,303Z" style="fill:#232323"/></g></g><g id="Calque_2-13" data-name="Calque 2"><g id="Calque_1-2-13" data-name="Calque 1-2"><path d="M252.5,325a28.5,28.5,0,1,1-28.5,28.5A28.5,28.5,0,0,1,252.5,325m0-22a50.5,50.5,0,1,0,50.5,50.5A50.49,50.49,0,0,0,252.5,303Z" style="fill:#232323"/></g></g></g></g></svg>