<svg xmlns="http://www.w3.org/2000/svg" viewBox="0 0 303 101"><title>threeCircles</title><g id="Calque_2" data-name="Calque 2"><g id="Calque_1-2" data-name="Calque 1"><g id="Calque_2-2" data-name="Calque 2"><g id="Calque_1-2-2" data-name="Calque 1-2"><path d="M50.5,22A28.5,28.5,0,1,1,22,50.5,28.5,28.5,0,0,1,50.5,22m0-22A50.5,50.5,0,1,0,101,50.5,50.5,50.5,0,0,0,50.5,0Z" style="fill:#cacd2c"/></g></g><g id="Calque_2-3" data-name="Calque 2"><g id="Calque_1-2-3" data-name="Calque 1-2"><path d="M151.5,22A28.5,28.5,0,1,1,123,50.5,28.5,28.5,0,0,1,151.5,22m0-22A50.5,50.5,0,1,0,202,50.5,50.5,50.5,0,0,0,151.5,0Z" style="fill:#cacd2c"/></g></g><g id="Calque_2-4" data-name="Calque 2"><g id="Calque_1-2-4" data-name="Calque 1-2"><path d="M252.5,22A28.5,28.5,0,1,1,224,50.5,28.5,28.5,0,0,1,252.5,22m0-22A50.5,50.5,0,1,0,303,50.5,50.5,50.5,0,0,0,252.5,0Z" style="fill:#cacd2c"/></g></g></g></g></svg>